<svg xmlns="http://www.w3.org/2000/svg" viewBox="0 0 512 512" width="512" height="512"><defs><style>.icon { fill: #000000;} @media (prefers-color-scheme: dark) { .icon { fill: #FFFFFF;} }</style></defs><rect fill="none" width="512" height="512"/><path class="icon" d="M344.38,155.88a88,88,0,0,0-176,.08h0l-.79,200v0h0v.15h0a88,88,0,0,0,176-.08h0l.79-200v0h0v-.15ZM299.89,349.31c-1.73-1-3.58-1.81-5.38-2.71V320.28H283.35V342c-1.72-.58-3.41-1.23-5.18-1.71v-20H267V338c-1.7-.23-3.46-.23-5.19-.36V320.28H250.67v17.28c-1.74.1-3.48.15-5.19.35V320.28H234.33V340c-1.76.45-3.47,1-5.19,1.55V320.28H218v25.66c-2,1-4.12,1.88-6.07,3l.19-117c1.88,1.1,3.9,2,5.88,3V256h11.15V239.46c1.72.57,3.42,1.18,5.19,1.64V256h11.15V243.28c1.7.21,3.46.24,5.19.35V256h11.15V243.66c1.74-.11,3.49-.14,5.19-.35V256h11.16V241.19c1.76-.46,3.46-1.05,5.18-1.62V256h11.16V235.06c1.86-.9,3.78-1.72,5.57-2.75Zm.5-193.24a44,44,0,0,1-88,0H233.6a22,22,0,0,0,42.24,8.63,9.36,9.36,0,1,1,5.8-8.65h18.75Z"/></svg>