<svg width="43.2218798px" height="91.9099662px" viewBox="0 0 43.2218798 91.9099662" xmlns="http://www.w3.org/2000/svg">
    <path d="M0.150630924,21.4940197 C0.171933118,9.63846005 9.76400672,-0.00030588733 21.5532495,-0.00030588733 C33.3455354,-0.00030588733 42.9436953,9.64764566 42.955868,21.5123909 L42.955868,21.5123909 L43.1506309,70.4625024 L43.1506309,70.4655642 L43.1506309,70.4686261 L43.1506309,70.5053686 L43.1475878,70.5053686 C43.1262856,82.3609282 33.534212,91.9996941 21.7449692,91.9996941 C9.95268329,91.9996941 0.354523351,82.3517426 0.342350669,70.4869973 L0.342350669,70.4869973 L0.150630924,21.5368858 L0.150630924,21.533824 L0.150630924,21.5307621 L0.150630924,21.4940197 Z M10.1974527,68.9996941 C10.6282132,68.7493477 11.0933097,68.5515432 11.5427989,68.3290131 L11.5427989,61.8261888 L14.3240134,61.8261888 L14.3240134,67.1823649 C14.7547739,67.0371022 15.1761701,66.876386 15.6194164,66.7589396 L15.6194164,61.8261888 L18.4037524,61.8261888 L18.4037524,66.205705 C18.8251485,66.1500725 19.2652734,66.1500725 19.6960339,66.1191655 L19.6960339,61.8261888 L22.4803699,61.8261888 L22.4803699,66.0944399 C22.9142518,66.1191655 23.3481338,66.1315283 23.7757728,66.1809794 L23.7757728,61.8261888 L26.5569873,61.8261888 L26.5569873,66.6878535 C26.9971122,66.7991186 27.4247512,66.9351092 27.8523903,67.0710998 L27.8523903,61.8261888 L30.6367263,61.8261888 L30.6367263,68.1652062 C31.1424016,68.4062805 31.6636843,68.6319013 32.1506309,68.9069732 L32.1006877,39.9996941 C31.6324697,40.2716754 31.1267944,40.4911148 30.6367263,40.7321891 L30.6367263,45.9431024 L27.8523903,45.9431024 L27.8523903,41.8572024 C27.4216298,41.9993744 26.9971122,42.1477278 26.5569873,42.2651742 L26.5569873,45.9431024 L23.7757728,45.9431024 L23.7757728,42.7998646 C23.3512552,42.8554972 22.9111304,42.8616786 22.4803699,42.8894948 L22.4803699,45.9431024 L19.6960339,45.9431024 L19.6960339,42.8956762 C19.2652734,42.8678599 18.82827,42.8616786 18.4037524,42.8091367 L18.4037524,45.9431024 L15.6194164,45.9431024 L15.6194164,42.2868091 C15.1792915,42.1724534 14.7547739,42.0241 14.3240134,41.8850186 L14.3240134,45.9431024 L11.5427989,45.9431024 L11.5427989,40.7723681 C11.074581,40.5467473 10.5969987,40.3458521 10.1506309,40.092415 L10.1974527,68.9996941 Z M10.1506309,21.2932742 C10.1537595,27.1962733 15.087491,31.9996941 21.1506309,31.9996941 C27.2168994,31.9996941 32.1506309,27.1932274 32.1506309,21.2871824 L26.853987,21.2871824 C26.8508585,24.2417279 24.3886855,26.6388694 21.3477299,26.6388694 C19.0795274,26.6388694 17.1304375,25.2986632 16.2888562,23.3858234 C16.564169,23.4985226 16.8645103,23.562487 17.1804944,23.562487 C18.4725877,23.562487 19.5237822,22.5421027 19.5237822,21.2810906 C19.5237822,20.0200784 18.4725877,18.9996941 17.1804944,18.9996941 C15.8852726,18.9996941 14.8372066,20.0200784 14.8372066,21.2810906 L14.8372066,21.2810906 L10.1506309,21.2810906 L10.1506309,21.2932742 Z" id="Fill-20" fill="currentColor"></path>
</svg>