<svg aria-label="instagram" role="img" id="instagram" data-name="instagram" xmlns="http://www.w3.org/2000/svg" viewBox="0 0 512 512" width="512" height="512"><path fill="currentColor" d="M255,48.47c67.27,0,75.23.26,101.8,1.47,24.56,1.12,37.9,5.22,46.78,8.67a78.05,78.05,0,0,1,29,18.84,78.05,78.05,0,0,1,18.84,29c3.45,8.88,7.55,22.22,8.67,46.78,1.21,26.56,1.47,34.53,1.47,101.8s-.26,75.23-1.47,101.8c-1.12,24.56-5.22,37.9-8.67,46.78a83.43,83.43,0,0,1-47.81,47.81c-8.88,3.45-22.22,7.55-46.78,8.67-26.56,1.21-34.53,1.47-101.8,1.47s-75.24-.26-101.8-1.47c-24.56-1.12-37.9-5.22-46.78-8.67a78.05,78.05,0,0,1-29-18.84,78.05,78.05,0,0,1-18.84-29c-3.45-8.88-7.55-22.22-8.67-46.78-1.21-26.56-1.47-34.53-1.47-101.8s.26-75.23,1.47-101.8c1.12-24.56,5.22-37.9,8.67-46.78a78.05,78.05,0,0,1,18.84-29,78.05,78.05,0,0,1,29-18.84c8.88-3.45,22.22-7.55,46.78-8.67,26.56-1.21,34.53-1.47,101.8-1.47m0-45.39c-68.42,0-77,.29-103.87,1.52S106,10.08,90,16.3A123.49,123.49,0,0,0,45.36,45.36,123.49,123.49,0,0,0,16.3,90C10.08,106,5.82,124.32,4.6,151.13S3.08,186.58,3.08,255s.29,77,1.52,103.87S10.08,404,16.3,420a123.49,123.49,0,0,0,29.06,44.62A123.49,123.49,0,0,0,90,493.69c16,6.23,34.34,10.49,61.15,11.71s35.45,1.52,103.87,1.52,77-.29,103.87-1.52S404,499.92,420,493.69A128.82,128.82,0,0,0,493.69,420c6.23-16,10.49-34.34,11.71-61.15s1.52-35.45,1.52-103.87-.29-77-1.52-103.87S499.92,106,493.69,90a123.49,123.49,0,0,0-29.06-44.62A123.49,123.49,0,0,0,420,16.3C404,10.08,385.68,5.82,358.87,4.6S323.42,3.08,255,3.08Z"/><path fill="currentColor" d="M255,125.64A129.36,129.36,0,1,0,384.36,255,129.36,129.36,0,0,0,255,125.64ZM255,339a84,84,0,1,1,84-84A84,84,0,0,1,255,339Z"/><circle fill="currentColor" cx="389.48" cy="120.52" r="30.23"/></svg>
