<svg id="logo" width="93.69979px" height="79px" viewBox="0 0 93.69979 79" xmlns="http://www.w3.org/2000/svg">
    <path d="M34.2633148,37.0231735 C34.2633148,38.7663251 32.8514409,40.178199 31.1082893,40.178199 C29.3677668,40.178199 27.9558929,38.7663251 27.9558929,37.0231735 C27.9558929,35.2800218 29.3677668,33.8681479 31.1082893,33.8681479 C32.8514409,33.8681479 34.2633148,35.2800218 34.2633148,37.0231735" fill="currentColor"></path>
    <path d="M21.5356339,48.831958 C20.5746437,49.9977494 19.127907,50.7486872 17.5,50.7486872 C15.5622656,50.7486872 13.8713428,49.6905476 12.9628657,48.1256564 L18.3533383,48.1256564 L22.0397599,48.1256564 L27.6534133,48.1256564 C27.8713428,47.2828207 28,46.4084771 28,45.5 C28,39.7104276 23.2895724,35 17.5,35 C11.7104276,35 7,39.7104276 7,45.5 C7,51.2895724 11.7104276,56 17.5,56 C21.6642911,56 25.2588147,53.5581395 26.9549887,50.0371343 L21.5356339,48.831958 Z M16.4986983,40 C18.4200174,40 20.0966156,41.209 21,43 L12,43 C12.900781,41.209 14.5773792,40 16.4986983,40 L16.4986983,40 Z" fill="currentColor"></path>
    <path d="M46.1009708,37.2853035 C40.3036113,37.2853035 35.5868481,42.0020667 35.5868481,47.7994262 L35.5868481,55.1585234 L40.8425948,55.1585234 L40.8425948,47.7994262 C40.8425948,44.8994319 43.2009765,42.5436795 46.1009708,42.5436795 C48.998336,42.5436795 51.3567176,44.8994319 51.3567176,47.7994262 L51.3567176,55.1585234 L56.6150935,55.1585234 L56.6150935,47.7994262 C56.6150935,42.0020667 51.8983303,37.2853035 46.1009708,37.2853035" fill="currentColor"></path>
    <path d="M61.1060095,11.7903306 C59.1893315,11.7903306 57.3988545,12.313539 55.8502628,13.2127213 L55.8502628,1.27620785 L50.5918868,1.27620785 L50.5918868,22.3044533 L50.5918868,30.1893881 L50.5918868,31.2410633 L55.8502628,31.2410633 L55.8502628,30.1893881 L55.8502628,22.3044533 C55.8502628,19.404459 58.2060152,17.0487065 61.1060095,17.0487065 C64.0060039,17.0487065 66.3643855,19.404459 66.3643855,22.3044533 L66.3643855,31.2410633 L71.6201323,31.2410633 L71.6201323,22.3044533 C71.6201323,16.5070938 66.903369,11.7903306 61.1060095,11.7903306" fill="currentColor"></path>
    <path d="M17.5,11 C11.7104276,11 7,15.6945794 7,21.4646729 C7,27.2347664 11.7104276,31.9293458 17.5,31.9293458 C19.37997,31.9293458 21.1391598,31.4269159 22.6672918,30.5633645 L22.6541635,31.9528972 L27.9054764,32 L28,21.4882243 L28,21.4882243 C28,21.4803738 28,21.4725234 28,21.4646729 C28,15.6945794 23.2895724,11 17.5,11 M17,26 C14.2436218,26 12,23.7569392 12,21.0012503 C12,18.2430608 14.2436218,16 17,16 C19.7563782,16 22,18.2430608 22,20.9962491 L22,21.0062516 C21.9974987,23.7594399 19.7563782,26 17,26" fill="currentColor"></path>
    <path d="M37.675475,26.8558406 C36.318814,26.4956419 35.1830048,25.6253806 34.4810116,24.4106958 C33.7763892,23.196011 33.5897169,21.7788786 33.9499156,20.4222176 C34.6992342,17.6221324 37.5834534,15.9525981 40.3835386,16.6992875 C42.137207,17.1646537 43.5096431,18.4792477 44.0512559,20.2145118 L49.0677465,18.6475158 C47.9845211,15.182246 45.2449072,12.553058 41.7375704,11.6170671 C39.0268776,10.8966696 36.192613,11.2700143 33.7606141,12.679259 C31.3312444,14.0858746 29.5959803,16.3548638 28.8703245,19.0681858 C28.1472978,21.7815078 28.5232716,24.6131433 29.9298872,27.0451422 C31.339132,29.4745119 33.6081212,31.2124051 36.3214432,31.9354318 C37.2258839,32.1773171 38.1329537,32.2903722 39.0268776,32.2903722 C43.6726528,32.2903722 47.9345665,29.182672 49.1886892,24.4843131 L44.109098,23.1302813 C43.3624086,25.9303665 40.4703018,27.60253 37.675475,26.8558406" fill="currentColor"></path>
    <path d="M88.441414,21.7788786 C88.441414,24.6762438 86.0830324,27.0346254 83.1856673,27.0346254 C80.2856729,27.0346254 77.9272913,24.6762438 77.9272913,21.7788786 L77.9272913,20.2013658 L82.6598297,20.2013658 L82.6598297,14.9456191 L77.9272913,14.9456191 L77.9272913,10.7389183 L72.6715445,10.7389183 L72.6715445,21.7788786 C72.6715445,27.5762381 77.3883078,32.2930014 83.1856673,32.2930014 C88.9830268,32.2930014 93.69979,27.5762381 93.69979,21.7788786 L88.441414,21.7788786 Z" fill="currentColor"></path>
    <path d="M79.7493437,68.4112974 C79.7493437,71.3292145 77.3944243,73.7043248 74.4986873,73.7043248 C71.6055757,73.7043248 69.2506563,71.3292145 69.2506563,68.4112974 L69.2506563,61 L64,61 L64,68.4112974 C64,74.2497793 68.7124641,79 74.4986873,79 C80.2901613,79 85,74.2497793 85,68.4112974 L79.7493437,68.4112974 Z M52.4735457,58.5123201 C46.6693867,58.5123201 41.9470913,63.1078312 41.9470913,68.75616 L38.7909976,68.75616 C38.7909976,71.5790437 36.42985,73.8767992 33.5264543,73.8767992 C30.625691,73.8767992 28.2645433,71.5790437 28.2645433,68.75616 L28.2645433,67.2191998 L33.0026323,67.2191998 L33.0026323,62.0985606 L28.2645433,62.0985606 L28.2645433,58 L23,58 L23,68.75616 C23,74.4044889 27.7222953,79 33.5264543,79 C37.6959726,79 41.2969202,76.6228348 43,73.1928519 C44.7030798,76.6228348 48.3040274,79 52.4735457,79 C56.6456962,79 60.2519084,76.6177116 61.9523559,73.1826055 L56.5193472,72.0068309 C55.5533035,73.1441815 54.1055541,73.8767992 52.4735457,73.8767992 C50.5309292,73.8767992 48.8357462,72.8444743 47.9249803,71.3177604 L62.6525401,71.3177604 C62.8710187,70.4980483 63,69.6424738 63,68.75616 C63,63.1078312 58.2777047,58.5123201 52.4735457,58.5123201 L52.4735457,58.5123201 Z M48,65.9985 C48.900781,64.2105 50.5773792,63.0015 52.4986983,63.0015 C54.4200174,63.0015 56.0966156,64.2105 57,65.9985 L48,65.9985 Z" fill="currentColor"></path>
    <polygon fill="currentColor" points="28.4791013 55.1582605 33.7374772 55.1582605 33.7374772 42.0149498 28.4791013 42.0149498"></polygon>
    <path d="M6.22988871,-1.50990331e-14 L5.81208267,2.57037944 L4.09220985,2.57037944 L4.51001589,-1.50990331e-14 L2.65564387,-1.50990331e-14 L2.23783783,2.57037944 L0.500794908,2.57037944 L0.500794908,4.1126071 L1.98887122,4.1126071 L1.70556438,5.88494492 L-4.67386485e-09,5.88494492 L-4.67386485e-09,7.42962056 L1.43656597,7.42962056 L1.03593004,10 L2.89030206,10 L3.3081081,7.42962056 L5.02798092,7.42962056 L4.61017488,10 L6.4645469,10 L6.88235294,7.42962056 L8.50206677,7.42962056 L8.50206677,5.88494492 L7.14848966,5.88494492 L7.4317965,4.1126071 L9,4.1126071 L9,2.57037944 L7.6836248,2.57037944 L8.09856915,-1.50990331e-14 L6.22988871,-1.50990331e-14 Z M2.7485,4.414 L4.5515,4.414 L4.2515,6.586 L2.4485,6.586 L2.7485,4.414 Z" fill="currentColor"></path>
</svg>